<svg width="24" height="24" viewBox="0 0 24 24" fill="none" xmlns="http://www.w3.org/2000/svg">
<g clip-path="url(#clip0_108_168)">
<path d="M5 20V22H3V20H5ZM7 18H1V24H7V18ZM13 17V22H11V17H13ZM15 15H9V24H15V15ZM21 13V22H19V13H21ZM23 11H17V24H23V11ZM23 0L17 1.221L18.716 2.929L11.866 9.662L8.865 6.66L1.024 14.457L2.434 15.875L8.861 9.485L11.852 12.478L20.132 4.341L21.799 6.001L23 0V0Z" fill="#7A8089"/>
</g>
<defs>
<clipPath id="clip0_108_168">
<rect width="24" height="24" fill="white"/>
</clipPath>
</defs>
</svg>
