<svg width="16" height="16" viewBox="0 0 16 16" fill="none" xmlns="http://www.w3.org/2000/svg">
<path d="M3.19985 1.73083L7.99985 6.53083L12.7999 1.74538C12.8944 1.64921 13.0078 1.57371 13.133 1.52364C13.2582 1.47356 13.3924 1.45001 13.5271 1.45447C13.7915 1.47158 14.0407 1.58434 14.2281 1.77171C14.4154 1.95907 14.5282 2.20823 14.5453 2.47265C14.5466 2.60266 14.5215 2.73158 14.4715 2.8516C14.4215 2.97161 14.3476 3.08022 14.2544 3.17083L9.43985 7.99992L14.2544 12.829C14.4435 13.0123 14.5482 13.2654 14.5453 13.5272C14.5282 13.7916 14.4154 14.0408 14.2281 14.2281C14.0407 14.4155 13.7915 14.5283 13.5271 14.5454C13.3924 14.5498 13.2582 14.5263 13.133 14.4762C13.0078 14.4261 12.8944 14.3506 12.7999 14.2545L7.99985 9.46901L3.2144 14.2545C3.11989 14.3506 3.00646 14.4261 2.88128 14.4762C2.75609 14.5263 2.62188 14.5498 2.48713 14.5454C2.21777 14.5314 1.96316 14.418 1.77244 14.2273C1.58173 14.0366 1.46842 13.782 1.4544 13.5126C1.45308 13.3826 1.47819 13.2537 1.5282 13.1337C1.5782 13.0137 1.65207 12.9051 1.74531 12.8145L6.55985 7.99992L1.73076 3.17083C1.64015 3.079 1.56897 2.96984 1.52149 2.84988C1.474 2.72992 1.45119 2.60162 1.4544 2.47265C1.47151 2.20823 1.58428 1.95907 1.77164 1.77171C1.95901 1.58434 2.20816 1.47158 2.47258 1.45447C2.60629 1.44812 2.73987 1.46938 2.86499 1.51693C2.99012 1.56447 3.10411 1.63729 3.19985 1.73083Z" fill="#7A8089"/>
</svg>
