<svg width="20" height="20" viewBox="0 0 20 20" fill="none" xmlns="http://www.w3.org/2000/svg">
<path fill-rule="evenodd" clip-rule="evenodd" d="M1.81516 9.16667H0.833496V7.5C1.24016 7.49917 1.48683 7.26833 1.55183 6.94583C2.08266 4.895 4.1885 0 9.88516 0C15.6252 0 17.7885 5.1125 18.4635 7.01083C18.5885 7.36167 18.846 7.4975 19.1668 7.4975L19.1677 9.16667H18.1843C18.6635 9.54917 19.1668 10.3 19.1668 11.7758C19.1668 13.1342 18.4135 14.8475 16.7693 15.5517C14.9752 18.4225 12.5802 20 10.0002 20C7.42016 20 5.02516 18.4225 3.231 15.5517C1.586 14.8475 0.833496 13.1342 0.833496 11.7758C0.833496 10.3 1.336 9.54917 1.81516 9.16667ZM11.8335 15.3825H8.16683C8.17016 15.3925 8.6885 16.8325 10.0002 16.8325C11.3618 16.8325 11.8302 15.3925 11.8335 15.3825ZM15.5977 9.16667H4.40183L4.391 9.59583C4.391 10.1525 3.82266 10.5242 3.31766 10.2992C3.17683 10.2367 2.95933 10.2383 2.8035 10.34C2.03933 10.8408 2.12183 13.56 3.991 14.1975C4.75433 14.4583 5.961 16.7833 7.266 14.5292C7.71766 13.7508 9.14183 13.6633 10.0002 14.2817C10.8577 13.6633 12.2827 13.7508 12.7335 14.5292C14.0385 16.7833 15.2452 14.4583 16.0093 14.1975C17.8793 13.56 17.9602 10.8408 17.196 10.34C17.0168 10.2233 16.7902 10.2517 16.6827 10.2992C16.1777 10.525 15.6085 10.1525 15.6085 9.59583L15.5977 9.16667ZM7.51766 9.99667C6.98933 9.99667 6.56266 10.5133 6.56266 11.1508C6.56266 11.7883 6.98933 12.305 7.51766 12.305C8.04433 12.305 8.47266 11.7883 8.47266 11.1508C8.47266 10.5133 8.04433 9.99667 7.51766 9.99667ZM13.4377 11.1508C13.4377 11.7883 13.0102 12.305 12.4827 12.305C11.9552 12.305 11.5277 11.7883 11.5277 11.1508C11.5277 10.5133 11.9552 9.99667 12.4827 9.99667C13.0102 9.99667 13.4377 10.5133 13.4377 11.1508ZM9.16683 1.7025C8.55433 1.765 8.00016 1.90583 7.50016 2.105V5C7.50016 5.46 7.12683 5.83333 6.66683 5.83333C6.20683 5.83333 5.8335 5.46 5.8335 5V3.10917C4.03933 4.62333 3.346 6.87 3.17516 7.5H16.8377C16.5602 6.66167 15.8468 4.61667 14.1668 3.18583V5C14.1668 5.46 13.7935 5.83333 13.3335 5.83333C12.8735 5.83333 12.5002 5.46 12.5002 5V2.16167C12.001 1.955 11.4468 1.8025 10.8335 1.725V4.16667C10.8335 4.62667 10.4602 5 10.0002 5C9.54016 5 9.16683 4.62667 9.16683 4.16667V1.7025Z" fill="#7A8089"/>
</svg>
