<svg width="20" height="20" viewBox="0 0 20 20" fill="none" xmlns="http://www.w3.org/2000/svg">
<path d="M17.4998 6.6665C17.3315 6.6665 13.4582 6.69067 9.99984 8.33984C6.5415 6.69067 2.66817 6.6665 2.49984 6.6665C2.27882 6.6665 2.06686 6.7543 1.91058 6.91058C1.7543 7.06686 1.6665 7.27882 1.6665 7.49984V15.7357C1.6665 15.8475 1.68901 15.9582 1.73267 16.0611C1.77634 16.164 1.84027 16.2571 1.92067 16.3348C2.08317 16.4915 2.32067 16.589 2.52817 16.5682L2.634 16.5673C3.20317 16.5673 6.214 16.649 9.64734 18.2548C9.66067 18.2615 9.67567 18.259 9.689 18.264C9.78817 18.3048 9.89234 18.3332 9.99984 18.3332C10.1073 18.3332 10.2115 18.3048 10.3115 18.264C10.3248 18.259 10.3398 18.2615 10.3532 18.2548C13.7865 16.6482 16.7973 16.5673 17.3665 16.5673L17.4723 16.5682C17.6707 16.589 17.9165 16.4915 18.0798 16.3348C18.2415 16.1773 18.3332 15.9607 18.3332 15.7357V7.49984C18.3332 7.27882 18.2454 7.06686 18.0891 6.91058C17.9328 6.7543 17.7209 6.6665 17.4998 6.6665ZM3.33317 8.374C4.57067 8.4665 6.984 8.774 9.1665 9.784V16.2357C6.6665 15.2565 4.50817 14.9907 3.33317 14.9223V8.374ZM16.6665 14.9223C15.4915 14.9907 13.3332 15.2565 10.8332 16.2357V9.784C13.0157 8.774 15.429 8.4665 16.6665 8.374V14.9223Z" fill="#7A8089"/>
<path d="M10 6.6665C11.3807 6.6665 12.5 5.54722 12.5 4.1665C12.5 2.78579 11.3807 1.6665 10 1.6665C8.61929 1.6665 7.5 2.78579 7.5 4.1665C7.5 5.54722 8.61929 6.6665 10 6.6665Z" fill="#7A8089"/>
</svg>
