<svg width="20" height="20" viewBox="0 0 20 20" fill="none" xmlns="http://www.w3.org/2000/svg">
<path d="M15.8523 14.1475C15.462 13.7737 15.0822 13.3891 14.7132 12.9942C14.4032 12.6792 14.2165 12.45 14.2165 12.45L11.8832 11.3359C12.8173 10.2764 13.3329 8.91251 13.3332 7.50002C13.3332 4.28419 10.7165 1.66669 7.49984 1.66669C4.28317 1.66669 1.6665 4.28419 1.6665 7.50002C1.6665 10.7159 4.28317 13.3334 7.49984 13.3334C8.969 13.3334 10.3082 12.7834 11.3357 11.8842L12.4498 14.2175C12.4498 14.2175 12.679 14.4042 12.994 14.7142C13.3165 15.0167 13.7407 15.4259 14.1473 15.8534L15.279 17.0134L15.7823 17.5517L17.5498 15.7842L17.0115 15.2809C16.6957 14.9709 16.274 14.5592 15.8523 14.1475ZM7.49984 11.6667C5.20234 11.6667 3.33317 9.79752 3.33317 7.50002C3.33317 5.20252 5.20234 3.33335 7.49984 3.33335C9.79734 3.33335 11.6665 5.20252 11.6665 7.50002C11.6665 9.79752 9.79734 11.6667 7.49984 11.6667Z" fill="#7A8089"/>
</svg>
