<svg width="24" height="24" viewBox="0 0 24 24" fill="none" xmlns="http://www.w3.org/2000/svg">
<circle cx="12" cy="12" r="12" fill="#BE1B1B"/>
<path d="M14.5 17.5C14.5 18.8785 13.3785 20 12 20C10.6215 20 9.5 18.8785 9.5 17.5C9.5 16.1215 10.6215 15 12 15C13.3785 15 14.5 16.1215 14.5 17.5ZM9.78938 4.78747L10.2144 13.2875C10.2343 13.6866 10.5638 14 10.9634 14H13.0366C13.4362 14 13.7657 13.6866 13.7856 13.2875L14.2106 4.78747C14.232 4.35906 13.8905 4 13.4616 4H10.5384C10.1095 4 9.76797 4.35906 9.78938 4.78747Z" fill="white"/>
</svg>
