<svg width="20" height="20" viewBox="0 0 20 20" fill="none" xmlns="http://www.w3.org/2000/svg">
<path d="M10.8332 7.50005H9.1665V10H6.6665V11.6667H9.1665V14.1667H10.8332V11.6667H13.3332V10H10.8332V7.50005ZM9.99984 16.6667C8.45274 16.6667 6.96901 16.0521 5.87505 14.9582C4.78109 13.8642 4.1665 12.3805 4.1665 10.8334C4.1665 9.28629 4.78109 7.80256 5.87505 6.70859C6.96901 5.61463 8.45274 5.00005 9.99984 5.00005C11.5469 5.00005 13.0307 5.61463 14.1246 6.70859C15.2186 7.80256 15.8332 9.28629 15.8332 10.8334C15.8332 12.3805 15.2186 13.8642 14.1246 14.9582C13.0307 16.0521 11.5469 16.6667 9.99984 16.6667ZM9.99984 3.33338C8.01071 3.33338 6.10306 4.12356 4.69654 5.53008C3.29001 6.9366 2.49984 8.84426 2.49984 10.8334C2.49984 12.8225 3.29001 14.7302 4.69654 16.1367C6.10306 17.5432 8.01071 18.3334 9.99984 18.3334C11.989 18.3334 13.8966 17.5432 15.3031 16.1367C16.7097 14.7302 17.4998 12.8225 17.4998 10.8334C17.4998 8.84426 16.7097 6.9366 15.3031 5.53008C13.8966 4.12356 11.989 3.33338 9.99984 3.33338ZM18.3332 4.76672L14.4998 1.55005L13.4248 2.82505L17.2582 6.04172L18.3332 4.76672ZM6.5665 2.82505L5.49984 1.55005L1.6665 4.75838L2.7415 6.03338L6.5665 2.82505Z" fill="#27282C"/>
</svg>
