<svg width="24" height="24" viewBox="0 0 24 24" fill="none" xmlns="http://www.w3.org/2000/svg">
<path d="M18.75 1.5H2.75C2.48478 1.5 2.23043 1.60536 2.04289 1.79289C1.85536 1.98043 1.75 2.23478 1.75 2.5V5.09C1.75 5.613 1.963 6.127 2.333 6.497L7.75 11.914V19.5C7.7502 19.6704 7.79387 19.8379 7.8769 19.9867C7.95992 20.1354 8.07955 20.2605 8.22444 20.3502C8.36934 20.4398 8.53471 20.4909 8.7049 20.4988C8.8751 20.5066 9.04447 20.4709 9.197 20.395L13.197 18.395C13.536 18.225 13.75 17.879 13.75 17.5V11.914L19.167 6.497C19.537 6.127 19.75 5.613 19.75 5.09V2.5C19.75 2.23478 19.6446 1.98043 19.4571 1.79289C19.2696 1.60536 19.0152 1.5 18.75 1.5ZM12.043 10.793C11.95 10.8857 11.8762 10.9959 11.8259 11.1172C11.7756 11.2386 11.7498 11.3687 11.75 11.5V16.882L9.75 17.882V11.5C9.75019 11.3687 9.7244 11.2386 9.67412 11.1172C9.62383 10.9959 9.55004 10.8857 9.457 10.793L3.75 5.09V3.5H17.751L17.753 5.083L12.043 10.793Z" fill="#7A8089"/>
<path d="M22.5 15.1768L21.5732 14.25L18.75 17.0732L15.9268 14.25L15 15.1768L17.8232 18L15 20.8232L15.9268 21.75L18.75 18.9268L21.5732 21.75L22.5 20.8232L19.6768 18L22.5 15.1768Z" fill="#7A8089"/>
</svg>
