<svg width="16" height="16" viewBox="0 0 16 16" fill="none" xmlns="http://www.w3.org/2000/svg">
<path d="M8 0C10.1217 0 12.1566 0.842856 13.6569 2.34315C15.1571 3.84344 16 5.87827 16 8C16 10.1217 15.1571 12.1566 13.6569 13.6569C12.1566 15.1571 10.1217 16 8 16C5.87827 16 3.84344 15.1571 2.34315 13.6569C0.842856 12.1566 0 10.1217 0 8C0 5.87827 0.842856 3.84344 2.34315 2.34315C3.84344 0.842856 5.87827 0 8 0ZM8 3.55556C7.79195 3.55549 7.59048 3.62839 7.43065 3.76158C7.27083 3.89477 7.16278 4.0798 7.12533 4.28444L7.11111 4.44444V7.11111H4.44444C4.22232 7.1107 4.00809 7.19347 3.84394 7.34313C3.67979 7.49278 3.57762 7.69847 3.55755 7.91968C3.53748 8.1409 3.60097 8.36162 3.7355 8.53837C3.87004 8.71512 4.06587 8.83509 4.28444 8.87467L4.44444 8.88889H7.11111V11.5556C7.1107 11.7777 7.19347 11.9919 7.34313 12.1561C7.49278 12.3202 7.69847 12.4224 7.91968 12.4424C8.1409 12.4625 8.36162 12.399 8.53837 12.2645C8.71512 12.13 8.83509 11.9341 8.87467 11.7156L8.88889 11.5556V8.88889H11.5556C11.7777 8.8893 11.9919 8.80653 12.1561 8.65687C12.3202 8.50722 12.4224 8.30154 12.4424 8.08032C12.4625 7.8591 12.399 7.63838 12.2645 7.46163C12.13 7.28488 11.9341 7.16491 11.7156 7.12533L11.5556 7.11111H8.88889V4.44444C8.88889 4.2087 8.79524 3.9826 8.62854 3.81591C8.46184 3.64921 8.23575 3.55556 8 3.55556Z" fill="#27282C"/>
</svg>
