<svg width="20" height="20" viewBox="0 0 20 20" fill="none" xmlns="http://www.w3.org/2000/svg">
<path d="M8.15546 8.22791C7.41244 8.22791 6.68612 8.00751 6.0684 7.5946C5.45069 7.18168 4.96933 6.59482 4.68525 5.90826C4.40116 5.2217 4.32711 4.46629 4.47247 3.73764C4.61783 3.00898 4.97607 2.33981 5.50185 1.81481C6.02763 1.28981 6.69732 0.932565 7.42619 0.788284C8.15507 0.644003 8.91036 0.719169 9.5965 1.00427C10.2826 1.28937 10.8688 1.7716 11.2808 2.38992C11.6928 3.00825 11.9121 3.7349 11.911 4.47791C11.9081 5.47253 11.5113 6.42549 10.8075 7.12828C10.1036 7.83106 9.15008 8.22645 8.15546 8.22791ZM8.15546 1.83347C7.63243 1.83347 7.12116 1.98856 6.68628 2.27913C6.2514 2.56971 5.91246 2.98272 5.71231 3.46592C5.51216 3.94913 5.45979 4.48084 5.56182 4.99382C5.66386 5.50679 5.91572 5.97798 6.28555 6.34781C6.65538 6.71765 7.12658 6.96951 7.63955 7.07154C8.15252 7.17358 8.68423 7.12121 9.16744 6.92106C9.65065 6.72091 10.0637 6.38196 10.3542 5.94708C10.6448 5.51221 10.7999 5.00093 10.7999 4.47791C10.7999 3.77656 10.5213 3.10393 10.0254 2.60801C9.52943 2.11208 8.85681 1.83347 8.15546 1.83347Z" fill="#7A8089"/>
<path d="M9.12244 17.6002C9.00102 17.4787 8.90736 17.3324 8.8479 17.1713C8.78844 17.0102 8.76459 16.8381 8.778 16.6669H2.22244V13.4558C3.01016 12.6152 3.96561 11.9495 5.02694 11.5016C6.08826 11.0537 7.23181 10.8337 8.38355 10.8558H8.78355C8.75805 10.6695 8.77586 10.4799 8.8356 10.3016C8.89535 10.1233 8.9954 9.96126 9.128 9.82798L9.19466 9.76687C8.93355 9.76687 8.63911 9.73353 8.38355 9.73353C7.02822 9.70136 5.68267 9.97076 4.4442 10.5223C3.20573 11.0738 2.10529 11.8936 1.22244 12.9224C1.15032 13.0186 1.11133 13.1356 1.11133 13.2558V16.6669C1.11133 16.9616 1.22839 17.2442 1.43677 17.4525C1.64514 17.6609 1.92775 17.778 2.22244 17.778H9.278L9.12244 17.6002Z" fill="#7A8089"/>
<path d="M14.9277 9.05017C14.9552 9.04448 14.9836 9.04448 15.0111 9.05017C14.9835 9.04516 14.9553 9.04516 14.9277 9.05017Z" fill="#7A8089"/>
<path d="M11.7778 15.3333C12.2667 15.3333 12.6667 15.7333 12.6667 16.2222C12.6667 16.7111 12.2667 17.1111 11.7778 17.1111C11.2889 17.1111 10.8889 16.7111 10.8889 16.2222C10.8889 15.7333 11.2889 15.3333 11.7778 15.3333ZM11.7778 14.4444C10.8 14.4444 10 15.2444 10 16.2222C10 17.2 10.8 18 11.7778 18C12.7556 18 13.5556 17.2 13.5556 16.2222C13.5556 15.2444 12.7556 14.4444 11.7778 14.4444ZM14.4444 10.8889C14.9333 10.8889 15.3333 11.2889 15.3333 11.7778C15.3333 12.2667 14.9333 12.6667 14.4444 12.6667C13.9556 12.6667 13.5556 12.2667 13.5556 11.7778C13.5556 11.2889 13.9556 10.8889 14.4444 10.8889ZM14.4444 10C13.4667 10 12.6667 10.8 12.6667 11.7778C12.6667 12.7556 13.4667 13.5556 14.4444 13.5556C15.4222 13.5556 16.2222 12.7556 16.2222 11.7778C16.2222 10.8 15.4222 10 14.4444 10ZM17.1111 15.3333C17.6 15.3333 18 15.7333 18 16.2222C18 16.7111 17.6 17.1111 17.1111 17.1111C16.6222 17.1111 16.2222 16.7111 16.2222 16.2222C16.2222 15.7333 16.6222 15.3333 17.1111 15.3333ZM17.1111 14.4444C16.1333 14.4444 15.3333 15.2444 15.3333 16.2222C15.3333 17.2 16.1333 18 17.1111 18C18.0889 18 18.8889 17.2 18.8889 16.2222C18.8889 15.2444 18.0889 14.4444 17.1111 14.4444Z" fill="#7A8089"/>
</svg>
