<svg width="20" height="20" viewBox="0 0 20 20" fill="none" xmlns="http://www.w3.org/2000/svg">
<path d="M8.15546 8.22791C7.41244 8.22791 6.68612 8.00751 6.0684 7.5946C5.45069 7.18168 4.96933 6.59482 4.68525 5.90826C4.40116 5.2217 4.32711 4.46629 4.47247 3.73764C4.61783 3.00898 4.97607 2.33981 5.50185 1.81481C6.02763 1.28981 6.69732 0.932565 7.42619 0.788284C8.15507 0.644003 8.91036 0.719169 9.5965 1.00427C10.2826 1.28937 10.8688 1.7716 11.2808 2.38992C11.6928 3.00825 11.9121 3.7349 11.911 4.47791C11.9081 5.47253 11.5113 6.42549 10.8075 7.12828C10.1036 7.83106 9.15008 8.22645 8.15546 8.22791ZM8.15546 1.83347C7.63243 1.83347 7.12116 1.98856 6.68628 2.27913C6.2514 2.56971 5.91246 2.98272 5.71231 3.46592C5.51216 3.94913 5.45979 4.48084 5.56182 4.99382C5.66386 5.50679 5.91572 5.97798 6.28555 6.34781C6.65538 6.71765 7.12658 6.96951 7.63955 7.07154C8.15252 7.17358 8.68423 7.12121 9.16744 6.92106C9.65065 6.72091 10.0637 6.38196 10.3542 5.94708C10.6448 5.51221 10.7999 5.00093 10.7999 4.47791C10.7999 3.77656 10.5213 3.10393 10.0254 2.60801C9.52943 2.11208 8.85681 1.83347 8.15546 1.83347Z" fill="#7A8089"/>
<path d="M9.12244 17.6002C9.00102 17.4787 8.90736 17.3324 8.8479 17.1713C8.78844 17.0102 8.76459 16.8381 8.778 16.6669H2.22244V13.4558C3.01016 12.6152 3.96561 11.9495 5.02694 11.5016C6.08826 11.0537 7.23181 10.8337 8.38355 10.8558H8.78355C8.75805 10.6695 8.77586 10.4799 8.8356 10.3016C8.89535 10.1233 8.9954 9.96126 9.128 9.82798L9.19466 9.76687C8.93355 9.76687 8.63911 9.73353 8.38355 9.73353C7.02822 9.70136 5.68267 9.97076 4.4442 10.5223C3.20573 11.0738 2.10529 11.8936 1.22244 12.9224C1.15032 13.0186 1.11133 13.1356 1.11133 13.2558V16.6669C1.11133 16.9616 1.22839 17.2442 1.43677 17.4525C1.64514 17.6609 1.92775 17.778 2.22244 17.778H9.278L9.12244 17.6002Z" fill="#7A8089"/>
<path d="M14.9277 9.05017C14.9552 9.04448 14.9836 9.04448 15.0111 9.05017C14.9835 9.04516 14.9553 9.04516 14.9277 9.05017Z" fill="#7A8089"/>
<path d="M18.7113 12.9556L17.6002 12.6168C17.5208 12.345 17.4128 12.0824 17.278 11.8334L17.8335 10.8001C17.8516 10.7588 17.856 10.7127 17.846 10.6687C17.836 10.6247 17.8121 10.5851 17.778 10.5556L16.9724 9.75009C16.942 9.71711 16.9013 9.69535 16.8569 9.68829C16.8126 9.68124 16.7672 9.68931 16.728 9.7112L15.7058 10.2668C15.454 10.1253 15.1877 10.0116 14.9113 9.92787L14.5724 8.81676C14.558 8.77586 14.5308 8.74074 14.4947 8.7167C14.4586 8.69265 14.4157 8.68097 14.3724 8.68343H13.2335C13.1898 8.68292 13.1471 8.69677 13.112 8.72286C13.0768 8.74895 13.0512 8.78584 13.0391 8.82787L12.7002 9.93898C12.4219 10.0199 12.1536 10.1317 11.9002 10.2723L10.8891 9.71676C10.8507 9.69529 10.8062 9.68744 10.7629 9.6945C10.7195 9.70157 10.6798 9.72312 10.6502 9.75565L9.82798 10.5556C9.79749 10.5878 9.77787 10.6286 9.77189 10.6725C9.7659 10.7164 9.77386 10.761 9.79464 10.8001L10.3502 11.8112C10.2033 12.0616 10.0858 12.3282 10.0002 12.6056L8.88909 12.939C8.84706 12.9511 8.81017 12.9767 8.78408 13.0119C8.75799 13.047 8.74414 13.0897 8.74464 13.1334V14.2723C8.74793 14.3124 8.76358 14.3506 8.78946 14.3814C8.81533 14.4123 8.85014 14.4343 8.88909 14.4445L10.0002 14.7834C10.0823 15.0559 10.1941 15.3186 10.3335 15.5668L9.77798 16.6279C9.75678 16.6659 9.74856 16.7098 9.75458 16.7529C9.76059 16.796 9.78051 16.836 9.81131 16.8668L10.6169 17.6723C10.6483 17.7037 10.6889 17.7244 10.7328 17.7313C10.7767 17.7383 10.8217 17.7313 10.8613 17.7112L11.9002 17.1556C12.1474 17.2886 12.4082 17.3948 12.678 17.4723L13.0113 18.5834C13.025 18.6245 13.051 18.6605 13.0858 18.6863C13.1205 18.7121 13.1624 18.7267 13.2058 18.7279H14.3446C14.3882 18.7275 14.4305 18.7133 14.4654 18.6873C14.5003 18.6614 14.5261 18.625 14.5391 18.5834L14.878 17.4445C15.1442 17.3669 15.4013 17.2608 15.6446 17.1279L16.6946 17.6834C16.7332 17.7039 16.7775 17.7112 16.8206 17.7042C16.8638 17.6972 16.9034 17.6762 16.9335 17.6445L17.778 16.889C17.8007 16.8564 17.8128 16.8176 17.8128 16.7779C17.8128 16.7381 17.8007 16.6994 17.778 16.6668L17.2224 15.6223C17.3573 15.3772 17.4653 15.1183 17.5446 14.8501L18.6558 14.5112C18.6978 14.4991 18.7347 14.4735 18.7608 14.4383C18.7869 14.4032 18.8007 14.3605 18.8002 14.3168V13.1501C18.8053 13.1126 18.7997 13.0744 18.7839 13.04C18.7682 13.0056 18.743 12.9763 18.7113 12.9556ZM13.8058 15.5556C13.4383 15.5567 13.0788 15.4487 12.7728 15.2452C12.4668 15.0418 12.2281 14.752 12.087 14.4128C11.9458 14.0735 11.9086 13.6999 11.98 13.3395C12.0515 12.979 12.2283 12.6479 12.4881 12.388C12.748 12.1282 13.0791 11.9513 13.4396 11.8799C13.8 11.8085 14.1736 11.8457 14.5129 11.9869C14.8521 12.128 15.1419 12.3667 15.3454 12.6727C15.5488 12.9787 15.6569 13.3382 15.6558 13.7056C15.6543 14.1958 15.4589 14.6656 15.1123 15.0122C14.7657 15.3588 14.296 15.5542 13.8058 15.5556Z" fill="#7A8089"/>
</svg>
