<svg width="16" height="16" viewBox="0 0 16 16" fill="none" xmlns="http://www.w3.org/2000/svg">
<path d="M10.9998 4.50002V11.5534C10.9998 12.9467 9.97984 14.1867 8.59317 14.32C8.22273 14.357 7.84865 14.3159 7.49509 14.1994C7.14152 14.0828 6.81634 13.8934 6.54053 13.6434C6.26472 13.3933 6.04443 13.0882 5.89388 12.7477C5.74333 12.4072 5.66587 12.039 5.6665 11.6667V3.42668C5.6665 2.55335 6.29317 1.76002 7.15984 1.67335C7.39226 1.64905 7.6272 1.67389 7.84939 1.74627C8.07159 1.81866 8.27609 1.93696 8.4496 2.0935C8.62311 2.25003 8.76177 2.44131 8.85656 2.65491C8.95135 2.86851 9.00017 3.09966 8.99984 3.33335V10.3334C8.99984 10.7 8.69984 11 8.33317 11C7.9665 11 7.6665 10.7 7.6665 10.3334V4.50002C7.6665 4.22668 7.43984 4.00002 7.1665 4.00002C6.89317 4.00002 6.6665 4.22668 6.6665 4.50002V10.24C6.6665 11.1134 7.29317 11.9067 8.15984 11.9934C8.39226 12.0177 8.6272 11.9928 8.84939 11.9204C9.07159 11.848 9.27609 11.7297 9.4496 11.5732C9.62311 11.4167 9.76177 11.2254 9.85656 11.0118C9.95135 10.7982 10.0002 10.567 9.99984 10.3334V3.44668C9.99984 2.05335 8.97984 0.813352 7.59317 0.680018C7.22284 0.643532 6.84897 0.684997 6.49563 0.801746C6.14229 0.918494 5.81732 1.10794 5.54163 1.35788C5.26594 1.60782 5.04564 1.91273 4.89492 2.25296C4.74419 2.5932 4.66639 2.96123 4.6665 3.33335V11.5134C4.6665 13.4267 6.0665 15.14 7.97317 15.32C10.1665 15.52 11.9998 13.8134 11.9998 11.6667V4.50002C11.9998 4.22668 11.7732 4.00002 11.4998 4.00002C11.2265 4.00002 10.9998 4.22668 10.9998 4.50002Z" fill="black" fill-opacity="0.5"/>
</svg>
