<svg width="16" height="16" viewBox="0 0 16 16" fill="none" xmlns="http://www.w3.org/2000/svg">
<path d="M14.6668 5.33333C14.6668 4.96667 14.3668 4.66667 14.0001 4.66667H9.33348C8.96681 4.66667 8.66681 4.96667 8.66681 5.33333C8.66681 5.7 8.96681 6 9.33348 6H14.0001C14.3668 6 14.6668 5.7 14.6668 5.33333ZM8.66681 10.6667C8.66681 11.0333 8.96681 11.3333 9.33348 11.3333H14.0001C14.3668 11.3333 14.6668 11.0333 14.6668 10.6667C14.6668 10.3 14.3668 10 14.0001 10H9.33348C8.96681 10 8.66681 10.3 8.66681 10.6667ZM6.98015 3.08667C7.24015 3.34667 7.24015 3.76667 6.98015 4.02667L4.16015 6.86C3.90015 7.12 3.48015 7.12 3.21348 6.86L1.80015 5.44C1.6755 5.31535 1.60547 5.14629 1.60547 4.97C1.60547 4.88271 1.62266 4.79628 1.65606 4.71564C1.68947 4.635 1.73843 4.56172 1.80015 4.5C1.86187 4.43828 1.93514 4.38932 2.01579 4.35592C2.09643 4.32251 2.18286 4.30532 2.27015 4.30532C2.44643 4.30532 2.6155 4.37535 2.74015 4.5L3.68682 5.44667L6.04682 3.08667C6.30015 2.83333 6.72682 2.83333 6.98015 3.08667ZM6.98681 8.42667C7.24681 8.68667 7.24681 9.10667 6.98681 9.36667L4.16682 12.2C3.90682 12.46 3.48682 12.46 3.22015 12.2L1.80015 10.7733C1.73843 10.7116 1.68947 10.6383 1.65606 10.5577C1.62266 10.4771 1.60547 10.3906 1.60547 10.3033C1.60547 10.216 1.62266 10.1296 1.65606 10.049C1.68947 9.96833 1.73843 9.89506 1.80015 9.83333C1.86187 9.77161 1.93514 9.72265 2.01579 9.68925C2.09643 9.65585 2.18286 9.63865 2.27015 9.63865C2.35744 9.63865 2.44387 9.65585 2.52451 9.68925C2.60515 9.72265 2.67843 9.77161 2.74015 9.83333L3.68682 10.78L6.04682 8.42C6.30015 8.16667 6.72681 8.16667 6.98681 8.42667Z" fill="black" fill-opacity="0.54"/>
</svg>
