<svg width="16" height="16" viewBox="0 0 16 16" fill="none" xmlns="http://www.w3.org/2000/svg">
<path d="M9.99984 7.33331H3.99984V8.66665H9.99984V7.33331ZM3.99984 4.66665H11.9998V5.99998H3.99984V4.66665ZM1.33317 2.66665V14.6666L3.99984 12H13.3332C13.6868 12 14.0259 11.8595 14.276 11.6095C14.526 11.3594 14.6665 11.0203 14.6665 10.6666V2.66665C14.6665 1.93331 14.0665 1.33331 13.3332 1.33331H2.6665C2.31288 1.33331 1.97374 1.47379 1.7237 1.72384C1.47365 1.97389 1.33317 2.31302 1.33317 2.66665ZM2.6665 2.66665H13.3332V10.6666H3.4465L2.6665 11.4466V2.66665Z" fill="#27282C" fill-opacity="0.5"/>
</svg>
