<svg width="24" height="24" viewBox="0 0 24 24" fill="none" xmlns="http://www.w3.org/2000/svg">
<g clip-path="url(#clip0_108_172)">
<path d="M1 3C1 2.44772 1.44772 2 2 2H21C21.5523 2 22 2.44772 22 3V17C22 17.5523 21.5523 18 21 18H14.2361C14.0808 18 13.9277 18.0361 13.7889 18.1056L7.44721 21.2764C6.78231 21.6088 6 21.1253 6 20.382V19C6 18.4477 5.55228 18 5 18H2C1.44772 18 1 17.5523 1 17V3ZM6 10.5C6 10.2239 6.22386 10 6.5 10V10C6.77614 10 7 10.2239 7 10.5V10.5C7 10.7761 6.77614 11 6.5 11V11C6.22386 11 6 10.7761 6 10.5V10.5ZM11 10.5C11 10.2239 11.2239 10 11.5 10V10C11.7761 10 12 10.2239 12 10.5V10.5C12 10.7761 11.7761 11 11.5 11V11C11.2239 11 11 10.7761 11 10.5V10.5ZM16 10.5C16 10.2239 16.2239 10 16.5 10V10C16.7761 10 17 10.2239 17 10.5V10.5C17 10.7761 16.7761 11 16.5 11V11C16.2239 11 16 10.7761 16 10.5V10.5Z" stroke="#7A8089" stroke-width="2.66667"/>
</g>
<defs>
<clipPath id="clip0_108_172">
<rect width="24" height="24" fill="white"/>
</clipPath>
</defs>
</svg>
