<svg width="32" height="32" viewBox="0 0 32 32" fill="none" xmlns="http://www.w3.org/2000/svg">
<path d="M16.0002 29.3334C17.4668 29.3334 18.6668 28.1334 18.6668 26.6667H13.3335C13.3335 28.1334 14.5335 29.3334 16.0002 29.3334ZM24.0002 21.3334V14.6667C24.0002 10.5734 21.8268 7.14671 18.0002 6.24004V5.33337C18.0002 4.22671 17.1068 3.33337 16.0002 3.33337C14.8935 3.33337 14.0002 4.22671 14.0002 5.33337V6.24004C10.1868 7.14671 8.00016 10.56 8.00016 14.6667V21.3334L5.3335 24V25.3334H26.6668V24L24.0002 21.3334ZM21.3335 22.6667H10.6668V14.6667C10.6668 11.36 12.6802 8.66671 16.0002 8.66671C19.3202 8.66671 21.3335 11.36 21.3335 14.6667V22.6667Z" fill="#7A8089"/>
</svg>
