<svg width="24" height="24" viewBox="0 0 24 24" fill="none" xmlns="http://www.w3.org/2000/svg">
<circle cx="12" cy="12" r="12" fill="#27282C"/>
<path d="M7.93189 4.40002L9.18189 5.30652C11.5389 7.00552 12.2539 8.67152 12.4004 9.04052L11.9474 9.49352V9.50952L11.6034 9.85302L5.74389 15.931L5.40039 16.291L7.52539 18.416L7.88489 18.041L14.0879 11.6185L14.2444 11.431L14.2909 11.4L14.7754 11.228L14.8694 11.322L14.6819 11.775L14.5409 12.0875L16.1974 13.744L19.3849 10.5565L17.9629 9.13452L17.7284 8.91552L17.4319 9.02502L16.9784 9.19702L16.8694 9.08752L17.0254 8.58752L17.0879 8.38452L16.9939 8.19702C16.9939 8.19702 16.4674 7.21852 15.2754 6.27502C14.0839 5.33152 12.1974 4.40002 9.47839 4.40002H7.93189ZM10.9469 5.52502C12.6309 5.77502 13.8459 6.40802 14.6659 7.05652C15.5489 7.75502 15.9004 8.32102 16.0104 8.50952L15.8229 9.08752L15.7444 9.36902L15.9479 9.58752L16.7444 10.3845L17.0569 10.2595L17.4944 10.0875L17.9634 10.5565L16.1979 12.3215L15.7289 11.853L15.9164 11.4L16.0574 11.0875L15.8074 10.853L15.2449 10.2905L15.0259 10.056L14.7134 10.166L13.8229 10.525L13.7289 10.5565L13.3699 10.2125L13.0099 9.85302L13.5884 9.27502L13.4789 8.97802C13.4789 8.97802 12.8074 7.28102 10.9479 5.52502H10.9469ZM12.3069 10.5565L13.0254 11.275L7.50989 16.978L6.80639 16.275L12.3069 10.5565Z" fill="white"/>
</svg>
