<svg width="20" height="20" viewBox="0 0 20 20" fill="none" xmlns="http://www.w3.org/2000/svg">
<path d="M8.15546 8.22767C7.41244 8.22767 6.68612 8.00726 6.0684 7.59435C5.45069 7.18144 4.96933 6.59457 4.68525 5.90801C4.40116 5.22145 4.32711 4.46605 4.47247 3.73739C4.61783 3.00873 4.97607 2.33957 5.50185 1.81457C6.02763 1.28956 6.69732 0.932321 7.42619 0.78804C8.15507 0.643759 8.91036 0.718925 9.5965 1.00403C10.2826 1.28913 10.8688 1.77135 11.2808 2.38968C11.6928 3.00801 11.9121 3.73465 11.911 4.47767C11.9081 5.47229 11.5113 6.42525 10.8075 7.12803C10.1036 7.83082 9.15008 8.2262 8.15546 8.22767ZM8.15546 1.83322C7.63243 1.83322 7.12116 1.98832 6.68628 2.27889C6.2514 2.56947 5.91246 2.98247 5.71231 3.46568C5.51216 3.94889 5.45979 4.4806 5.56182 4.99357C5.66386 5.50654 5.91572 5.97774 6.28555 6.34757C6.65538 6.7174 7.12658 6.96926 7.63955 7.0713C8.15252 7.17333 8.68423 7.12097 9.16744 6.92081C9.65065 6.72066 10.0637 6.38172 10.3542 5.94684C10.6448 5.51196 10.7999 5.00069 10.7999 4.47767C10.7999 3.77632 10.5213 3.10369 10.0254 2.60776C9.52943 2.11183 8.85681 1.83322 8.15546 1.83322Z" fill="#7A8089"/>
<path d="M9.12244 17.6C9.00102 17.4785 8.90736 17.3322 8.8479 17.1711C8.78844 17.0099 8.76459 16.8378 8.778 16.6666H2.22244V13.4555C3.01016 12.615 3.96561 11.9492 5.02694 11.5013C6.08826 11.0535 7.23181 10.8334 8.38355 10.8555H8.78355C8.75805 10.6692 8.77586 10.4796 8.8356 10.3014C8.89535 10.1231 8.9954 9.96102 9.128 9.82774L9.19466 9.76662C8.93355 9.76662 8.63911 9.73329 8.38355 9.73329C7.02822 9.70111 5.68267 9.97051 4.4442 10.522C3.20573 11.0735 2.10529 11.8933 1.22244 12.9222C1.15032 13.0183 1.11133 13.1353 1.11133 13.2555V16.6666C1.11133 16.9613 1.22839 17.2439 1.43677 17.4523C1.64514 17.6607 1.92775 17.7777 2.22244 17.7777H9.278L9.12244 17.6Z" fill="#7A8089"/>
<path d="M14.9277 9.04992C14.9552 9.04423 14.9836 9.04423 15.0111 9.04992C14.9835 9.04492 14.9553 9.04492 14.9277 9.04992Z" fill="#7A8089"/>
<path d="M17.1111 10.8889V11.7778H15.3333V10.8889H17.1111ZM12.6667 10.8889V13.5556H10.8889V10.8889H12.6667ZM17.1111 14.4444V17.1111H15.3333V14.4444H17.1111ZM12.6667 16.2222V17.1111H10.8889V16.2222H12.6667ZM18 10H14.4444V12.6667H18V10ZM13.5556 10H10V14.4444H13.5556V10ZM18 13.5556H14.4444V18H18V13.5556ZM13.5556 15.3333H10V18H13.5556V15.3333Z" fill="#7A8089"/>
</svg>
